<svg width="200" height="200" viewBox="0 0 200 200" fill="none" xmlns="http://www.w3.org/2000/svg">
<g clip-path="url(#clip0_55345_33004)">
<mask id="mask0_55345_33004" style="mask-type:luminance" maskUnits="userSpaceOnUse" x="0" y="0" width="200" height="200">
<path d="M200 0H0V200H200V0Z" fill="white"/>
</mask>
<g mask="url(#mask0_55345_33004)">
<path d="M100 0C44.771 0 0 44.771 0 100C0 155.229 44.771 200 100 200C155.229 200 200 155.229 200 100C200 44.771 155.229 0 100 0Z" fill="white"/>
<path d="M100 10.0742C50.3354 10.0742 10.0742 50.3354 10.0742 100C10.0742 149.665 50.3354 189.926 100 189.926C149.665 189.926 189.926 149.665 189.926 100C189.926 50.3354 149.665 10.0742 100 10.0742Z" fill="#0500C4"/>
<path d="M183.58 32.6398C183.58 41.2969 176.562 48.3163 167.903 48.3163C159.244 48.3163 152.227 41.2992 152.227 32.6398C152.227 23.9805 159.246 16.9634 167.903 16.9634C176.56 16.9634 183.58 23.9805 183.58 32.6398Z" fill="white"/>
<path d="M175.889 32.6397C175.889 37.05 172.316 40.6237 167.905 40.6237C163.495 40.6237 159.921 37.05 159.921 32.6397C159.921 28.2295 163.495 24.6558 167.905 24.6558C172.316 24.6558 175.889 28.2295 175.889 32.6397Z" fill="#0500C4"/>
<path d="M50.3116 75.0029C50.8969 74.4176 51.5652 73.972 52.2928 73.6805C53.7597 73.0952 55.3262 73.0952 56.7907 73.6805C57.5183 73.972 58.1842 74.4176 58.7766 75.0077L60.6488 76.8206L64.2794 73.1307L62.4594 71.3107C61.3692 70.2182 60.1085 69.3959 58.7269 68.8698C56.0158 67.7488 53.0772 67.7465 50.3116 68.865C48.9513 69.3959 47.7095 70.2182 46.617 71.3107C45.5269 72.4008 44.7046 73.6426 44.1737 75.0053C43.6452 76.3585 43.3774 77.7804 43.3774 79.2331C43.3774 80.6858 43.6452 82.0603 44.1737 83.4135C44.7046 84.7737 45.5245 86.0155 46.617 87.108C47.7071 88.1982 48.9466 89.0347 50.314 89.6011C51.6979 90.1296 53.1175 90.395 54.537 90.395C55.9565 90.395 57.3618 90.1272 58.7221 89.5964C60.1109 89.0347 61.3692 88.1958 62.457 87.108L64.277 85.288L60.6464 81.5982L58.7601 83.4253C58.2079 84.0059 57.5585 84.4491 56.8357 84.7382C56.1058 85.0297 55.3309 85.179 54.5394 85.179C52.8781 85.179 51.4965 84.6007 50.3092 83.4158C49.7239 82.8305 49.2783 82.1622 48.9868 81.4346C48.6954 80.6976 48.5437 79.9416 48.5437 79.1833C48.5437 78.425 48.693 77.669 48.9868 76.932C49.276 76.2092 49.7168 75.5622 50.3092 74.9982" fill="white"/>
<path d="M84.7645 71.3132C83.6744 70.2231 82.4137 69.3984 81.032 68.8723C78.321 67.7514 75.38 67.7514 72.6168 68.8676C71.2565 69.4008 70.0123 70.2231 68.9246 71.3132C67.8321 72.4034 67.0097 73.6452 66.4789 75.0054C65.9504 76.361 65.6826 77.7663 65.6826 79.1858C65.6826 80.6054 65.9504 82.0249 66.4789 83.4136C67.0097 84.7739 67.8321 86.0157 68.9246 87.1082C69.9815 88.1651 71.2043 88.9875 72.5623 89.5491C73.9178 90.1108 75.3587 90.3952 76.8469 90.3952C78.3352 90.3952 79.776 90.1108 81.1316 89.5491C82.4871 88.9875 83.71 88.1651 84.7693 87.1082L86.5893 85.2858L82.8995 81.596L81.0794 83.416C80.1244 84.3687 79.0438 84.9327 77.7783 85.1365C77.482 85.1791 77.1858 85.2005 76.8991 85.2005C76.2142 85.2005 75.5388 85.0772 74.8871 84.8379L86.5917 73.1333L84.7717 71.3132H84.7645ZM76.7663 73.2186C77.4654 73.2186 78.1456 73.3394 78.802 73.5812C78.4229 73.9532 77.956 74.4035 77.4038 74.9343L71.1925 81.1457C70.965 80.5177 70.8489 79.8612 70.8489 79.1858C70.8489 77.5269 71.4271 76.143 72.612 74.9557C73.5457 74.0196 74.6406 73.4556 75.8611 73.2826C76.1668 73.2399 76.4701 73.2186 76.7663 73.2186Z" fill="white"/>
<path d="M107.064 71.3132C106.036 70.2871 104.83 69.4813 103.488 68.9268C100.862 67.7442 97.5376 67.7229 94.8099 68.922C93.4544 69.4837 92.2458 70.2894 91.222 71.3132C90.2314 72.3062 89.428 73.4935 88.8308 74.8514C88.2668 76.1785 87.9824 77.6359 87.9824 79.1882V90.3951H93.1961V79.1882C93.1961 78.3682 93.343 77.598 93.6321 76.906C93.9568 76.1714 94.3857 75.5315 94.9118 75.0054C95.4664 74.4485 96.1038 74.0196 96.8124 73.7233C98.2722 73.0858 99.9999 73.0787 101.488 73.7304C102.213 74.0196 102.844 74.4485 103.384 75.0149C103.931 75.5339 104.358 76.1666 104.657 76.9131C104.974 77.6099 105.138 78.3753 105.138 79.1882V90.3951H110.351V79.1882C110.351 77.6336 110.048 76.1714 109.456 74.8561C108.894 73.4982 108.086 72.3062 107.062 71.3132" fill="white"/>
<path d="M118.881 75.003C119.466 74.4176 120.132 73.9721 120.862 73.6806C122.326 73.0953 123.89 73.0953 125.36 73.6806C126.087 73.9721 126.755 74.4177 127.348 75.0077L129.22 76.8207L132.851 73.1308L131.031 71.3108C129.941 70.2183 128.68 69.396 127.298 68.8699C124.587 67.7489 121.646 67.7489 118.883 68.8651C117.523 69.396 116.281 70.2183 115.188 71.3108C114.098 72.4009 113.273 73.6451 112.745 75.0054C112.217 76.3585 111.949 77.7804 111.949 79.2332C111.949 80.6859 112.217 82.0604 112.745 83.4136C113.276 84.7715 114.096 86.0156 115.188 87.1081C116.278 88.1983 117.518 89.0324 118.885 89.6012C120.269 90.1297 121.689 90.3951 123.108 90.3951C124.528 90.3951 125.933 90.1273 127.293 89.5965C128.682 89.0348 129.941 88.1959 131.028 87.1081L132.848 85.2881L129.218 81.5983L127.331 83.4254C126.779 84.006 126.132 84.4492 125.405 84.7383C124.675 85.0298 123.902 85.1791 123.108 85.1791C121.447 85.1791 120.063 84.6008 118.878 83.4159C118.29 82.8306 117.847 82.1623 117.556 81.4347C117.262 80.7001 117.113 79.9441 117.113 79.1834C117.113 78.4227 117.262 77.6667 117.556 76.932C117.845 76.2092 118.286 75.5623 118.878 74.9983" fill="white"/>
<path d="M153.331 71.313C152.305 70.2869 151.096 69.4811 149.757 68.9266C147.129 67.744 143.807 67.7227 141.079 68.9195C139.723 69.4811 138.515 70.2869 137.489 71.313C136.498 72.3036 135.695 73.4909 135.1 74.8512C134.536 76.1783 134.251 77.6357 134.251 79.188C134.251 80.7402 134.536 82.1645 135.102 83.5295C135.695 84.878 136.496 86.0795 137.491 87.1103C138.515 88.1317 139.721 88.9517 141.081 89.5513C142.437 90.1129 143.894 90.3973 145.413 90.3973C146.932 90.3973 148.425 90.1129 149.755 89.5465C151.106 88.9541 152.31 88.1365 153.336 87.1103C154.362 86.0818 155.168 84.8756 155.725 83.5295C156.319 82.1692 156.623 80.7094 156.623 79.188C156.623 77.6665 156.319 76.1712 155.729 74.8559C155.165 73.4956 154.357 72.3036 153.336 71.3154M151.409 79.188C151.409 80.0056 151.248 80.79 150.921 81.5341C150.629 82.2617 150.203 82.911 149.646 83.4655C149.122 83.9916 148.48 84.423 147.76 84.7405C146.295 85.3259 144.522 85.3187 143.086 84.7476C142.347 84.4206 141.688 83.9869 141.148 83.475C140.617 82.9157 140.183 82.2569 139.863 81.5341C139.569 80.7995 139.42 80.0103 139.42 79.188C139.42 78.3656 139.569 77.5978 139.856 76.9082C140.181 76.1712 140.612 75.5313 141.138 75.0076C141.69 74.4531 142.342 74.0265 143.084 73.7279C143.814 73.4056 144.596 73.2444 145.416 73.2444C146.236 73.2444 147.018 73.408 147.76 73.735C148.485 74.0241 149.117 74.4507 149.655 75.0171C150.205 75.5384 150.629 76.1688 150.93 76.9153C151.248 77.6097 151.409 78.3751 151.409 79.1904" fill="white"/>
<path d="M112.231 127.421H112.226V127.497C112.226 127.471 112.231 127.447 112.231 127.421Z" fill="#FB8205"/>
</g>
<path d="M116.357 112.52V96.2533H108.982V98.481C106.233 96.5851 102.901 95.4736 99.3104 95.4736C89.895 95.4736 82.2642 103.105 82.2642 112.52C82.2642 121.935 89.895 129.566 99.3104 129.566C102.903 129.566 106.235 128.455 108.982 126.559V128.786H116.357V112.52ZM99.3104 122.191C93.9688 122.191 89.6391 117.861 89.6391 112.52C89.6391 107.178 93.9688 102.849 99.3104 102.849C104.652 102.849 108.982 107.178 108.982 112.52C108.982 117.861 104.652 122.191 99.3104 122.191Z" fill="#FFAC2C"/>
<path d="M147.42 96.2534V112.52C147.42 117.862 143.09 122.191 137.749 122.191C132.407 122.191 128.078 117.862 128.078 112.52V96.2534H120.703V112.52C120.703 118.343 123.622 123.483 128.078 126.559C130.827 128.455 134.159 129.566 137.749 129.566C141.339 129.566 144.671 128.455 147.42 126.559C147.378 131.863 143.064 136.15 137.749 136.15V136.135H134.462V143.525H137.749C141.342 143.525 144.674 142.413 147.42 140.517C151.875 137.441 154.795 132.301 154.795 126.478V96.2534H147.42Z" fill="#00C7F9"/>
<path d="M62.2508 95.4736C53.3805 95.4736 46.0174 102.247 45.2046 110.904V143.437H52.5795V126.559C55.3285 128.455 58.6605 129.566 62.2508 129.566C71.6662 129.566 79.2971 121.935 79.2971 112.52C79.2971 103.105 71.6662 95.4736 62.2508 95.4736ZM62.2508 122.191C56.9092 122.191 52.5795 117.861 52.5795 112.52C52.5795 107.178 56.9092 102.849 62.2508 102.849C67.5924 102.849 71.9221 107.178 71.9221 112.52C71.9221 117.861 67.5924 122.191 62.2508 122.191Z" fill="#F04B67"/>
</g>
<defs>
<clipPath id="clip0_55345_33004">
<rect width="200" height="200" fill="white"/>
</clipPath>
</defs>
</svg>
